<?xml version="1.0" encoding="UTF-8" standalone="no"?>
<!-- Created with Inkscape (http://www.inkscape.org/) -->

<svg
   xmlns:dc="http://purl.org/dc/elements/1.1/"
   xmlns:cc="http://creativecommons.org/ns#"
   xmlns:rdf="http://www.w3.org/1999/02/22-rdf-syntax-ns#"
   xmlns:svg="http://www.w3.org/2000/svg"
   xmlns="http://www.w3.org/2000/svg"
   xmlns:sodipodi="http://sodipodi.sourceforge.net/DTD/sodipodi-0.dtd"
   xmlns:inkscape="http://www.inkscape.org/namespaces/inkscape"
   width="50px"
   height="50px"
   viewBox="0 0 50 50"
   version="1.1"
   id="SVGRoot"
   inkscape:version="0.92.5 (2060ec1f9f, 2020-04-08)"
   sodipodi:docname="config.svg">
  <defs
     id="defs5397" />
  <sodipodi:namedview
     id="base"
     pagecolor="#ffffff"
     bordercolor="#666666"
     borderopacity="1.0"
     inkscape:pageopacity="0.0"
     inkscape:pageshadow="2"
     inkscape:zoom="3.6203867"
     inkscape:cx="-62.538508"
     inkscape:cy="-10.295814"
     inkscape:document-units="px"
     inkscape:current-layer="g5600"
     showgrid="false"
     inkscape:window-width="1294"
     inkscape:window-height="704"
     inkscape:window-x="72"
     inkscape:window-y="27"
     inkscape:window-maximized="1"
     inkscape:grid-bbox="true"
     showguides="true"
     inkscape:guide-bbox="true">
    <sodipodi:guide
       position="0,49.027912"
       orientation="1,0"
       id="guide5472"
       inkscape:locked="false" />
    <sodipodi:guide
       position="16.552734,50"
       orientation="0,1"
       id="guide5474"
       inkscape:locked="false" />
    <sodipodi:guide
       position="14.013672,0"
       orientation="0,1"
       id="guide5476"
       inkscape:locked="false" />
    <sodipodi:guide
       position="50,7.1289063"
       orientation="1,0"
       id="guide5478"
       inkscape:locked="false" />
  </sodipodi:namedview>
  <metadata
     id="metadata5400">
    <rdf:RDF>
      <cc:Work
         rdf:about="">
        <dc:format>image/svg+xml</dc:format>
        <dc:type
           rdf:resource="http://purl.org/dc/dcmitype/StillImage" />
        <dc:title />
      </cc:Work>
    </rdf:RDF>
  </metadata>
  <g
     inkscape:label="Capa 1"
     inkscape:groupmode="layer"
     id="layer1">
    <path
       id="path5470"
       style="fill:#ffffff;stroke-width:0.11320247;fill-opacity:1"
       d="M 19.666016,0 19.09375,0.26367188 C 18.450003,0.55978722 17.977569,1.0475914 17.804688,1.5976562 17.740994,1.8003417 17.496591,3.2759731 17.259766,4.875 L 16.828125,7.78125 16.253906,8.0664062 C 15.938279,8.2227695 15.228828,8.6523461 14.675781,9.0214844 L 13.669922,9.6914062 10.859375,8.5410156 C 8.3912585,7.5289937 7.9715989,7.3892913 7.4042969,7.3945312 6.7460361,7.4006136 5.8150573,7.7822552 5.4453125,8.1992188 5.1622729,8.5184042 0.22163704,17.135155 0.11914062,17.488281 c -0.12994429,0.447571 0.13011289,1.339442 0.55078126,1.884766 0.17472008,0.226494 1.36814002,1.205497 2.65234372,2.175781 2.0776362,1.569772 2.331536,1.79619 2.3066406,2.060547 -0.015368,0.163401 -0.040731,1.042376 -0.056641,1.953125 l -0.029297,1.65625 -2.1777344,1.740234 C 2.1673055,29.916055 1.025574,30.890819 0.828125,31.126953 0.34246027,31.707973 0.18708797,32.306928 0.34570312,32.988281 0.45050497,33.438454 4.1713847,40.073577 5.3828125,41.970703 5.8364269,42.681074 6.4792144,43.01954 7.3632812,43.015625 7.9636159,43.012903 8.4128184,42.86961 10.9375,41.875 l 2.888672,-1.138672 1.11914,0.667969 c 0.615718,0.367392 1.343229,0.776723 1.617188,0.908203 l 0.498047,0.238281 0.423828,2.830078 c 0.233155,1.555826 0.475862,3.017345 0.539063,3.25 0.154855,0.569751 0.784161,1.165692 1.445312,1.369141 0.449394,0.1383 1.441885,0.163191 5.892578,0.144531 4.982541,-0.02088 5.380909,-0.03691 5.751953,-0.232422 0.528067,-0.278252 0.893873,-0.61519 1.113281,-1.027343 0.09884,-0.185643 0.39068,-1.679478 0.648438,-3.31836 l 0.46875,-2.980468 1.259766,-0.683594 c 0.692734,-0.376696 1.416567,-0.796023 1.609375,-0.931641 l 0.349609,-0.246094 3.009766,1.181641 c 1.654401,0.650576 3.135074,1.183594 3.291015,1.183594 0.550309,0 1.3348,-0.35342 1.712891,-0.769532 0.206443,-0.227195 1.520381,-2.392941 2.917969,-4.814453 2.245214,-3.890127 2.548658,-4.475316 2.605468,-5.019531 0.0765,-0.732193 -0.08843,-1.29928 -0.486328,-1.671875 -0.158411,-0.148333 -1.426188,-1.055919 -2.816406,-2.017578 -2.22508,-1.539158 -2.524887,-1.78179 -2.498047,-2.025391 0.01677,-0.152198 0.04409,-1.019964 0.05859,-1.927734 l 0.02539,-1.650391 2.183594,-1.753906 C 47.767655,20.475439 48.903531,19.50453 49.089844,19.28125 49.570357,18.705574 49.743089,18.029789 49.576172,17.375 49.466717,16.945584 45.654081,10.166663 44.544922,8.4296875 44.089859,7.717033 43.44801,7.3789488 42.564453,7.3867188 41.967799,7.3919612 41.497842,7.5433139 38.984375,8.5332031 L 36.089844,9.671875 35.330078,9.1953125 C 34.912247,8.9326913 34.186701,8.5171773 33.716797,8.2734375 L 32.861328,7.8320312 32.439453,5.0683594 C 32.2071,3.5484886 32.019284,2.1680976 32.021484,2.0019531 32.030349,1.2939021 31.502791,0.57130273 30.714844,0.2109375 30.292174,0.01763341 29.876357,0.00322982 24.962891,0.00195313 Z m 5.246093,2.3867188 4.660157,0.029297 L 30,5.1738281 c 0.234844,1.5160863 0.482924,3.0992942 0.552734,3.5195313 l 0.126954,0.7636718 1.351562,0.6699218 c 1.486405,0.736037 2.411609,1.289638 3.160156,1.890625 l 0.490235,0.394531 3.326171,-1.3125 c 1.829212,-0.721971 3.378737,-1.3124996 3.441407,-1.3124996 0.138332,0 4.736142,7.9902996 4.664062,8.1054686 -0.04289,0.06856 -4.887402,3.968407 -5.388672,4.337891 -0.146664,0.108153 -0.141874,0.215948 0.03711,0.86914 0.170797,0.623458 0.191576,0.99043 0.128906,2.238282 -0.04123,0.821248 -0.103715,1.80016 -0.140625,2.173828 l -0.06836,0.679687 2.914062,1.998047 c 1.6023,1.099206 2.945525,2.049158 2.984375,2.111328 0.01958,0.0313 -0.580497,1.127946 -1.300781,2.423828 0.127087,0.39787 -0.08416,0.67249 -0.371094,0.667969 -1.145075,2.045444 -2.505671,4.428485 -2.9375,5.097656 -0.08151,0.126303 -0.748761,-0.09921 -3.433594,-1.160156 L 36.207031,38.013672 35.794922,38.3125 c -0.9117,0.663097 -1.959853,1.296414 -3.257813,1.96875 -0.751731,0.389392 -1.372259,0.711697 -1.380859,0.716797 -0.0085,0.0051 -0.253491,1.495958 -0.542969,3.3125 -0.28948,1.816541 -0.555204,3.348937 -0.589843,3.404297 -0.06674,0.10664 -9.730469,0.145454 -9.730469,0.03906 0,-0.08752 -0.903535,-5.995994 -0.984375,-6.4375 -0.06232,-0.340344 -0.17817,-0.421181 -1.675782,-1.179687 -0.885525,-0.448506 -2.017391,-1.113207 -2.513671,-1.476563 L 14.216797,38 l -3.3125,1.306641 c -1.822132,0.719174 -3.3631144,1.308593 -3.4257814,1.308593 -0.1383324,0 -4.7380986,-7.992252 -4.6660156,-8.107422 0.042893,-0.06856 4.8874028,-3.968405 5.3886719,-4.33789 0.1466655,-0.108153 0.1418844,-0.21595 -0.037109,-0.869141 -0.2031947,-0.743039 -0.2013913,-2.154482 0.00781,-4.40625 l 0.0625,-0.675781 -2.8027344,-2.125 c -1.558855,-1.181538 -2.7883642,-2.190628 -2.7695312,-2.273438 0.018616,-0.0819 1.0596191,-1.922137 2.3125,-4.089843 1.4650194,-2.534746 2.340319,-3.9425727 2.4550781,-3.9433596 0.098156,-6.414e-4 1.5970656,0.5832436 3.3300786,1.2968746 l 3.15039,1.296875 1.341797,-0.886718 c 1.63899,-1.084544 2.416918,-1.5141148 3.171875,-1.7539066 l 0.578125,-0.1835938 0.539063,-3.5136718 c 0.297349,-1.9323586 0.57878,-3.5524944 0.625,-3.5996094 0.04619,-0.047125 2.182633,-0.072814 4.746093,-0.056641 z"
       inkscape:connector-curvature="0" />
    <g
       transform="matrix(0.10890276,0,0,0.09876752,11.016418,12.672131)"
       id="g5600" />
  </g>
</svg>
