<?xml version="1.0" encoding="UTF-8" standalone="no"?>
<!-- Created with Inkscape (http://www.inkscape.org/) -->

<svg
   xmlns:dc="http://purl.org/dc/elements/1.1/"
   xmlns:cc="http://creativecommons.org/ns#"
   xmlns:rdf="http://www.w3.org/1999/02/22-rdf-syntax-ns#"
   xmlns:svg="http://www.w3.org/2000/svg"
   xmlns="http://www.w3.org/2000/svg"
   xmlns:sodipodi="http://sodipodi.sourceforge.net/DTD/sodipodi-0.dtd"
   xmlns:inkscape="http://www.inkscape.org/namespaces/inkscape"
   width="50px"
   height="50px"
   viewBox="0 0 50 50"
   version="1.1"
   id="SVGRoot"
   inkscape:version="0.92.5 (2060ec1f9f, 2020-04-08)"
   sodipodi:docname="home.svg">
  <defs
     id="defs4662" />
  <sodipodi:namedview
     id="base"
     pagecolor="#ffffff"
     bordercolor="#666666"
     borderopacity="1.0"
     inkscape:pageopacity="0.0"
     inkscape:pageshadow="2"
     inkscape:zoom="7.2407734"
     inkscape:cx="-9.3053091"
     inkscape:cy="31.744728"
     inkscape:document-units="px"
     inkscape:current-layer="layer1"
     showgrid="false"
     inkscape:window-width="1294"
     inkscape:window-height="704"
     inkscape:window-x="72"
     inkscape:window-y="27"
     inkscape:window-maximized="1"
     inkscape:grid-bbox="true" />
  <metadata
     id="metadata4665">
    <rdf:RDF>
      <cc:Work
         rdf:about="">
        <dc:format>image/svg+xml</dc:format>
        <dc:type
           rdf:resource="http://purl.org/dc/dcmitype/StillImage" />
        <dc:title />
      </cc:Work>
    </rdf:RDF>
  </metadata>
  <g
     inkscape:label="Capa 1"
     inkscape:groupmode="layer"
     id="layer1">
    <path
       style="fill:#ffffff;stroke-width:0.113;stroke:#ffffff;stroke-opacity:1;stroke-miterlimit:4;stroke-dasharray:none;fill-opacity:1"
       d="m 6.8092216,47.194999 c -0.203047,-0.123802 -0.470467,-0.391221 -0.594267,-0.594272 -0.220851,-0.362226 -0.2251,-0.594824 -0.225514,-12.351622 -3.4e-4,-9.961069 0.02608,-12.045876 0.156674,-12.358434 0.240664,-0.575995 0.802944,-0.919397 1.505399,-0.919397 0.633566,0 1.018145,0.207471 1.445559,0.779858 0.231192,0.309613 0.234121,0.423809 0.290189,11.320482 l 0.05664,11.007716 H 25.132457 40.821015 l 0.05664,-10.987654 c 0.05511,-10.694003 0.06262,-10.997558 0.280713,-11.358204 0.475624,-0.786544 1.665551,-1.028962 2.418611,-0.492734 0.739252,0.526394 0.698956,-0.223543 0.698492,13.0008 -3.41e-4,11.76435 -0.0046,11.99696 -0.225512,12.359189 -0.123802,0.203051 -0.391221,0.47047 -0.594273,0.594272 -0.36428,0.222099 -0.607333,0.225086 -18.32323,0.225086 -17.7158944,0 -17.9589514,-0.0031 -18.3232324,-0.225086 z M 0.69371802,21.112864 C -0.24910308,20.453901 -0.26231578,19.050981 0.66757792,18.336936 1.1674014,17.953132 23.914064,2.5138329 24.274116,2.3139971 c 0.191729,-0.1064147 0.577985,-0.193482 0.85834,-0.193482 0.280358,0 0.666613,0.08707 0.858342,0.193482 0.298636,0.1657492 22.891628,15.4910419 23.568798,15.9872029 0.133638,0.09791 0.356615,0.343352 0.495509,0.545419 0.208795,0.303773 0.243456,0.476826 0.20013,0.999262 -0.04499,0.542569 -0.111282,0.690747 -0.469075,1.04854 -0.39092,0.390923 -0.460316,0.416676 -1.122755,0.416676 -0.702355,0 -0.714002,-0.0054 -2.208154,-1.019475 C 45.629115,19.730913 40.535996,16.264703 35.13721,12.588937 29.738427,8.913169 25.258628,5.8902786 25.1821,5.8713936 25.105569,5.8525222 24.081854,6.494718 22.907168,7.298522 14.213154,13.247612 2.4882824,21.184691 2.2718931,21.267446 1.7890811,21.452083 1.0796399,21.382598 0.69371982,21.112864 Z M 41.953761,9.993625 C 41.108433,9.617914 40.877653,9.006556 40.877653,7.1429 V 5.751927 l -2.42742,-0.036389 c -2.243432,-0.033618 -2.451105,-0.054088 -2.739914,-0.2699306 -0.55282,-0.4131533 -0.766526,-0.798581 -0.766526,-1.3824498 0,-0.6743996 0.282625,-1.1741549 0.841714,-1.4883811 0.402099,-0.2259904 0.581472,-0.2372251 3.787788,-0.2372251 3.724065,0 3.898852,0.028729 4.393324,0.7219315 0.245165,0.3437071 0.252636,0.4379922 0.252636,3.1888191 0,2.796565 -0.0035,2.839164 -0.263947,3.171693 -0.52016,0.664227 -1.296847,0.886819 -2.001547,0.573612 z"
       id="path4592"
       inkscape:connector-curvature="0" />
    <path
       style="opacity:1;vector-effect:none;fill:none;fill-opacity:1;stroke:#000000;stroke-width:2.83186984;stroke-linecap:round;stroke-linejoin:round;stroke-miterlimit:4;stroke-dasharray:none;stroke-dashoffset:0;stroke-opacity:1"
       d="m 20.472354,41.026758 v -13.76193 l 9.287886,5.362361"
       id="path4588"
       inkscape:connector-curvature="0" />
    <path
       style="opacity:1;vector-effect:none;fill:none;fill-opacity:1;stroke:#000000;stroke-width:2.83186984;stroke-linecap:round;stroke-linejoin:bevel;stroke-miterlimit:4;stroke-dasharray:none;stroke-dashoffset:0;stroke-opacity:1"
       d="m 29.76024,32.627189 v 8.15382"
       id="path4590"
       inkscape:connector-curvature="0" />
    <path
       style="fill:#ffffff;fill-opacity:1;stroke:#ffffff;stroke-width:0.01560607;stroke-miterlimit:4;stroke-dasharray:none;stroke-opacity:1"
       d="M 19.502234,41.888558 19.14469,41.463642 V 34.23013 c 0,-5.314042 0.04378,-7.329604 0.164995,-7.595635 0.174906,-0.383878 0.756306,-0.755728 1.181606,-0.755728 0.140505,0 1.371015,0.641451 2.734468,1.425447 1.363452,0.783995 3.63474,2.09006 5.047306,2.902366 1.799371,1.034741 2.615997,1.5816 2.727609,1.826562 0.251698,0.552416 0.219391,8.626231 -0.03697,9.239795 -0.402018,0.962164 -1.541848,1.131456 -2.216855,0.329255 l -0.349,-0.414763 V 37.292702 33.397976 L 25.2435,31.571867 c -1.734892,-1.004361 -3.226445,-1.82611 -3.314563,-1.82611 -0.119056,0 -0.160214,1.520758 -0.160214,5.91976 v 5.919759 l -0.3641,0.3641 c -0.544334,0.544333 -1.416651,0.516446 -1.902386,-0.06082 z"
       id="path1476"
       inkscape:connector-curvature="0" />
  </g>
</svg>
