<?xml version="1.0" encoding="UTF-8" standalone="no"?>
<!-- Created with Inkscape (http://www.inkscape.org/) -->

<svg
   xmlns:dc="http://purl.org/dc/elements/1.1/"
   xmlns:cc="http://creativecommons.org/ns#"
   xmlns:rdf="http://www.w3.org/1999/02/22-rdf-syntax-ns#"
   xmlns:svg="http://www.w3.org/2000/svg"
   xmlns="http://www.w3.org/2000/svg"
   xmlns:sodipodi="http://sodipodi.sourceforge.net/DTD/sodipodi-0.dtd"
   xmlns:inkscape="http://www.inkscape.org/namespaces/inkscape"
   width="50px"
   height="50px"
   viewBox="0 0 50 50"
   version="1.1"
   id="SVGRoot"
   inkscape:version="0.92.5 (2060ec1f9f, 2020-04-08)"
   sodipodi:docname="productslist.svg">
  <defs
     id="defs815" />
  <sodipodi:namedview
     id="base"
     pagecolor="#ffffff"
     bordercolor="#666666"
     borderopacity="1.0"
     inkscape:pageopacity="0.0"
     inkscape:pageshadow="2"
     inkscape:zoom="5.12"
     inkscape:cx="6.9906339"
     inkscape:cy="40.775314"
     inkscape:document-units="px"
     inkscape:current-layer="g2094"
     showgrid="false"
     inkscape:window-width="1294"
     inkscape:window-height="704"
     inkscape:window-x="72"
     inkscape:window-y="27"
     inkscape:window-maximized="1"
     inkscape:grid-bbox="true"
     showguides="true"
     inkscape:guide-bbox="true">
    <sodipodi:guide
       position="67.396115,-214.89417"
       orientation="1,0"
       id="guide2059"
       inkscape:locked="false" />
  </sodipodi:namedview>
  <metadata
     id="metadata818">
    <rdf:RDF>
      <cc:Work
         rdf:about="">
        <dc:format>image/svg+xml</dc:format>
        <dc:type
           rdf:resource="http://purl.org/dc/dcmitype/StillImage" />
        <dc:title></dc:title>
      </cc:Work>
    </rdf:RDF>
  </metadata>
  <g
     inkscape:label="Capa 1"
     inkscape:groupmode="layer"
     id="layer1">
    <g
       id="g2094"
       transform="matrix(1,0,0,0.99606136,-0.2230709,0.19614005)">
      <path
         style="fill:#ffffff;fill-opacity:1;stroke:#f0f2ff;stroke-width:0.11976735;stroke-miterlimit:4;stroke-dasharray:none;stroke-opacity:0"
         d="m 8.4832355,48.384848 c -0.429687,-0.04123 -0.957031,-0.156008 -1.171875,-0.255069 -0.214844,-0.09906 -0.806639,-0.362939 -1.3151,-0.586397 -1.559918,-0.68555 -2.637723,-1.972398 -3.151789,-3.763088 -0.282322,-0.983433 -0.318267,-2.884585 -0.318267,-16.833112 0,-13.884412 0.0369,-15.854203 0.315331,-16.833116 0.501161,-1.7619865 1.586154,-3.0110215 3.395606,-3.9089895 1.033898,-0.513087 1.220843,-0.536777 4.9804695,-0.631139 l 3.90625,-0.09804 0.11067,-0.686296 c 0.125485,-0.778174 0.596644,-1.960848 0.781172,-1.960848 0.06743,0 0.325285,-0.176477 0.573002,-0.39217 0.247717,-0.2156931 0.561458,-0.3921701 0.697202,-0.3921701 0.135745,0 0.283406,-0.110297 0.328137,-0.245106 0.0631,-0.190184 1.696979,-0.245106 7.291667,-0.245106 7.044767,0 7.231312,0.01 8.123767,0.435445 0.87169,0.4155471 1.918602,1.5001981 1.918602,1.9877641 0,0.126091 0.08147,0.382477 0.181055,0.569745 0.09958,0.187269 0.226507,0.48928 0.282062,0.671137 0.08885,0.290851 0.519588,0.338054 3.578709,0.392169 3.338754,0.05906 3.521459,0.08311 4.572779,0.601709 1.389717,0.685531 3.104145,2.32835 3.104145,2.97449 0,0.151962 0.109863,0.313061 0.244141,0.357997 0.314271,0.105171 0.362328,34.5877655 0.04852,34.8122035 -0.107594,0.07695 -0.32732,0.397886 -0.488281,0.713188 -0.409061,0.801291 -1.574373,2.001387 -2.099299,2.161957 -0.241699,0.07393 -0.439453,0.216717 -0.439453,0.317296 0,0.100578 -0.153809,0.183415 -0.341797,0.184079 -0.187988,5.89e-4 -0.605469,0.155082 -0.927734,0.343149 -0.543803,0.317351 -1.765703,0.343426 -16.992188,0.362609 -9.023437,0.01138 -16.7578125,-0.01306 -17.1875005,-0.05428 z M 15.570186,42.29336 c 0.291631,-0.187334 0.627852,-0.429988 0.747159,-0.539233 0.500174,-0.457992 1.416122,-1.22824 2.326666,-1.956562 1.595588,-1.276274 1.850436,-1.650414 1.850705,-2.717001 2.35e-4,-0.960416 -0.111074,-1.162056 -0.970954,-1.758781 -0.665229,-0.461646 -2.534732,-0.456791 -3.089619,0.008 -0.225305,0.188732 -0.656233,0.535259 -0.95762,0.770059 -0.301386,0.234799 -0.746684,0.614142 -0.989551,0.842984 -0.407533,0.383998 -0.474881,0.392657 -0.873537,0.112325 -0.516319,-0.363075 -2.5132,-0.411898 -3.137055,-0.0767 -0.6657785,0.357725 -1.3095505,1.242134 -1.3095505,1.799052 0,0.537708 0.587592,1.422417 1.3824115,2.08143 0.448451,0.371827 0.914127,0.769591 1.034836,0.88392 1.000275,0.947405 2.949209,1.216552 3.986109,0.550486 z m 23.673486,-1.592165 c 0.696871,-0.375215 1.32909,-1.236346 1.354195,-1.844523 0.01432,-0.346705 -0.300217,-1.014407 -0.67335,-1.429424 -0.558884,-0.621621 -1.104166,-0.675826 -6.79841,-0.675826 h -5.753904 l -0.606592,0.568882 c -0.510037,0.47833 -0.606594,0.71373 -0.606594,1.478835 0,0.993922 0.293971,1.446304 1.272836,1.95873 0.484993,0.253888 1.466891,0.305204 5.859118,0.30621 4.769253,0.0012 5.34149,-0.03379 5.952701,-0.362884 z M 15.374873,31.902451 c 0.662843,-0.423807 4.083274,-3.271621 4.696905,-3.910595 0.339111,-0.353115 0.455729,-0.699075 0.455729,-1.351973 0,-0.733639 -0.10207,-0.973149 -0.622869,-1.461572 -0.623598,-0.584832 -1.092626,-0.694567 -2.534683,-0.593018 -0.495201,0.03487 -1.051967,0.346364 -2.020258,1.13027 -1.268433,1.026894 -1.362217,1.068431 -1.837265,0.813727 -0.27533,-0.147623 -1.051078,-0.266819 -1.723883,-0.26488 -1.118826,0.0032 -1.274169,0.05699 -1.8191935,0.629554 -0.76054,0.798979 -0.91488,1.423245 -0.534469,2.161785 0.282332,0.54813 1.9725515,2.120768 3.0522555,2.839923 0.654746,0.436105 2.210541,0.439757 2.887731,0.0068 z m 24.225529,-1.982467 c 0.341613,-0.306199 0.621115,-0.659151 0.621115,-0.784339 0,-0.125189 0.08789,-0.227615 0.195313,-0.227615 0.514592,0 -0.04341,-1.584522 -0.800203,-2.272288 -0.386672,-0.351402 -0.775961,-0.374858 -6.221635,-0.374858 -4.642652,0 -5.913189,0.05587 -6.32725,0.278241 -0.284955,0.153032 -0.5181,0.395687 -0.5181,0.539233 0,0.143546 -0.08789,0.260993 -0.195312,0.260993 -0.107422,0 -0.195313,0.465831 -0.195313,1.035178 0,0.828571 0.08171,1.09274 0.409413,1.323573 0.225175,0.158617 0.554765,0.395886 0.732421,0.527264 0.235963,0.174498 1.853069,0.24055 6.000723,0.245106 l 5.677713,0.0062 z M 15.26305,20.819531 c 0.629131,-0.361254 0.731965,-0.441719 2.778287,-2.173957 2.314405,-1.959175 2.453618,-2.140831 2.453618,-3.201674 0,-0.80257 -0.08875,-1.052894 -0.500801,-1.412587 -1.520819,-1.327564 -3.062,-1.016609 -5.255585,1.060389 -0.608046,0.575729 -0.780176,0.650635 -1.02547,0.446254 -0.162125,-0.135083 -0.614152,-0.357132 -1.004505,-0.493442 -1.326668,-0.463264 -3.1323705,0.487517 -3.4668475,1.825446 -0.106905,0.427627 0.610332,2.037744 0.9077265,2.037744 0.121511,0 0.349069,0.181368 1.556419,1.240499 0.268555,0.235586 0.708008,0.532188 0.976563,0.659115 0.653752,0.308984 2.052236,0.315602 2.580595,0.01221 z m 23.790458,-1.764763 c 0.573918,-0.291752 0.996511,-0.690255 1.247634,-1.176509 0.3762,-0.728446 0.376192,-0.74219 -9.76e-4,-1.470636 -0.714238,-1.379748 -1.264817,-1.511092 -6.621617,-1.579642 -5.059971,-0.06475 -5.958491,0.05067 -6.956344,0.893633 -0.474748,0.401053 -0.563188,0.621621 -0.563188,1.404577 0,0.710553 0.103594,1.026519 0.440848,1.344606 0.988254,0.932087 1.496522,1.009327 6.695502,1.017487 4.691928,0.0073 4.925453,-0.01022 5.758141,-0.433516 z"
         id="path2355"
         inkscape:connector-curvature="0" />
    </g>
  </g>
</svg>
